<?xml version="1.0" standalone="no"?>
<!DOCTYPE svg PUBLIC "-//W3C//DTD SVG 20010904//EN"
 "http://www.w3.org/TR/2001/REC-SVG-20010904/DTD/svg10.dtd">
<svg version="1.0" xmlns="http://www.w3.org/2000/svg"
 width="2000.000000pt" height="1600.000000pt" viewBox="0 0 2000.000000 1600.000000"
 preserveAspectRatio="xMidYMid meet">

<g transform="translate(0.000000,1600.000000) scale(0.100000,-0.100000)"
fill="#000000" stroke="none">
<path d="M987 15708 c21 -31 29 -37 31 -24 7 37 -7 66 -33 66 l-25 0 27 -42z"/>
<path d="M845 15733 c-16 -2 -40 -6 -53 -9 l-23 -5 22 -30 c17 -25 19 -33 8
-39 -7 -5 4 -7 27 -4 108 14 156 22 132 23 -27 1 -74 51 -61 65 6 6 2 6 -52
-1z"/>
<path d="M718 15713 c6 -2 18 -2 25 0 6 3 1 5 -13 5 -14 0 -19 -2 -12 -5z"/>
<path d="M602 15703 l-33 -4 26 -30 c14 -17 25 -35 25 -40 0 -5 21 -6 48 -3
75 9 75 9 50 49 -24 36 -32 38 -116 28z"/>
<path d="M427 15681 l-47 -6 27 -38 c25 -36 31 -38 63 -33 19 3 48 6 63 6 l28
0 -20 22 c-12 12 -23 30 -27 40 -3 10 -13 17 -22 16 -9 0 -38 -4 -65 -7z"/>
<path d="M266 15663 l-39 -4 6 -127 c4 -70 7 -205 7 -299 l0 -173 389 0 389 0
4 248 c2 136 2 253 0 260 -3 7 -13 -5 -23 -27 -16 -37 -22 -41 -54 -41 -40 0
-42 4 -16 45 l18 31 -63 -1 -63 0 -17 -37 c-15 -34 -21 -38 -56 -38 l-38 0 19
38 19 37 -73 0 c-40 0 -69 -3 -63 -6 6 -4 4 -18 -6 -38 -14 -26 -22 -31 -51
-31 -19 0 -35 2 -35 5 0 14 31 64 42 68 7 2 -18 4 -57 3 l-70 -1 -20 -37 c-18
-34 -24 -38 -58 -38 l-38 0 16 30 c19 37 19 54 0 46 -8 -3 -15 -1 -15 4 0 6 9
10 21 10 19 0 19 2 -6 34 l-26 34 23 5 c22 4 22 4 -2 4 -14 0 -43 -2 -64 -4z
m22 -40 c-4 -22 -22 -20 -26 1 -2 10 3 16 13 16 10 0 15 -7 13 -17z"/>
<path d="M398 15573 c7 -3 16 -2 19 1 4 3 -2 6 -13 5 -11 0 -14 -3 -6 -6z"/>
</g>
</svg>
