<?xml version="1.0" standalone="no"?>
<!DOCTYPE svg PUBLIC "-//W3C//DTD SVG 20010904//EN"
 "http://www.w3.org/TR/2001/REC-SVG-20010904/DTD/svg10.dtd">
<svg version="1.0" xmlns="http://www.w3.org/2000/svg"
 width="2000.000000pt" height="1600.000000pt" viewBox="0 0 2000.000000 1600.000000"
 preserveAspectRatio="xMidYMid meet">

<g transform="translate(0.000000,1600.000000) scale(0.100000,-0.100000)"
fill="#000000" stroke="none">
<path d="M17535 15264 c-280 -35 -946 -118 -1480 -184 -1380 -170 -1614 -199
-4005 -494 -1180 -146 -2401 -297 -2715 -336 -313 -38 -806 -99 -1095 -135
-289 -36 -851 -105 -1250 -154 -399 -49 -981 -121 -1295 -160 -1000 -124
-3567 -440 -3660 -452 -49 -5 -99 -12 -111 -14 -20 -4 -19 -16 84 -837 73
-578 101 -833 93 -836 -8 -3 -11 -233 -11 -843 l0 -839 8155 0 8155 0 0 840 0
840 -7290 0 -7290 0 0 100 c0 95 1 100 23 105 12 3 150 21 307 40 157 19 449
55 650 80 201 24 1713 211 3360 415 1647 203 3267 404 3600 445 333 41 805 99
1050 130 372 45 3123 386 4985 616 270 33 492 62 494 64 2 3 -43 379 -100 837
-98 784 -106 833 -124 835 -11 1 -249 -28 -530 -63z m-129 -614 c180 -250 403
-560 496 -689 93 -128 167 -235 164 -238 -5 -5 -1538 -195 -1541 -191 -1 2
-105 147 -232 323 -227 316 -360 500 -626 869 -75 104 -135 191 -133 194 6 5
1507 191 1528 189 9 -1 158 -199 344 -457z m-3823 -685 c258 -357 482 -669
498 -692 l29 -41 -38 -6 c-156 -25 -1508 -184 -1513 -178 -6 6 -822 1138 -941
1305 -27 38 -47 71 -44 74 3 3 130 21 283 39 153 19 490 61 748 93 259 32 479
58 490 57 13 -1 159 -195 488 -651z m-3938 -526 c273 -380 494 -693 491 -696
-3 -3 -348 -47 -768 -99 -719 -88 -764 -92 -779 -76 -9 9 -131 177 -271 372
-256 356 -427 595 -616 855 -58 80 -96 142 -89 144 16 6 1464 188 1504 190 31
1 45 -18 528 -690z m-4175 -196 c157 -219 381 -530 497 -692 117 -162 211
-296 209 -298 -5 -5 -1538 -194 -1542 -191 -26 30 -993 1382 -990 1385 2 2
325 44 718 93 392 49 727 91 743 93 83 11 58 38 365 -390z m-2368 -233 c66
-24 147 -93 183 -154 83 -141 75 -315 -19 -439 -96 -126 -275 -182 -430 -133
-259 80 -353 423 -172 624 110 121 281 161 438 102z m3097 -1447 c0 -5 -183
-343 -407 -753 l-407 -745 -778 -3 c-427 -1 -777 1 -777 5 0 4 183 344 408
755 l407 748 778 0 c427 0 777 -3 776 -7z m3989 -7 c-2 -8 -185 -348 -407
-755 l-405 -741 -778 0 c-428 0 -778 1 -778 3 0 3 704 1296 786 1445 l35 62
775 0 c662 0 775 -2 772 -14z m3999 2 c-3 -7 -187 -346 -409 -753 l-405 -740
-777 -3 c-642 -2 -777 0 -774 11 2 7 185 347 408 755 l405 742 778 0 c619 0
778 -3 774 -12z m3991 -2 c-2 -7 -185 -347 -408 -755 l-404 -741 -778 0 c-428
0 -778 2 -778 4 0 5 752 1385 796 1464 l25 42 775 0 c647 0 775 -2 772 -14z"/>
<path d="M2170 5575 l0 -4384 21 -55 c23 -64 86 -133 150 -168 l44 -23 7849
-3 7849 -2 52 23 c72 34 119 79 155 149 l30 61 0 4394 0 4393 -8075 0 -8075 0
0 -4385z m15500 2600 c0 -40 -3 -45 -22 -45 -19 0 -14796 0 -14820 0 -5 0 -8
20 -8 45 l0 45 7425 0 7425 0 0 -45z m0 -2225 l0 -50 -7425 0 -7425 0 0 50 0
50 7425 0 7425 0 0 -50z m0 -2225 l0 -45 -2160 0 -2160 0 0 -1100 0 -1100 -45
0 -45 0 0 1100 0 1100 -3012 -2 -3013 -3 0 -1098 0 -1097 -47 0 -48 0 0 1100
0 1100 -2160 0 -2160 0 0 45 0 45 7425 0 7425 0 0 -45z"/>
</g>
</svg>
