<?xml version="1.0" standalone="no"?>
<!DOCTYPE svg PUBLIC "-//W3C//DTD SVG 20010904//EN"
 "http://www.w3.org/TR/2001/REC-SVG-20010904/DTD/svg10.dtd">
<svg version="1.0" xmlns="http://www.w3.org/2000/svg"
 width="2000.000000pt" height="1600.000000pt" viewBox="0 0 2000.000000 1600.000000"
 preserveAspectRatio="xMidYMid meet">

<g transform="translate(0.000000,1600.000000) scale(0.100000,-0.100000)"
fill="#000000" stroke="none">
<path d="M9830 14741 c-298 -123 -4090 -1686 -5170 -2131 -278 -114 -829 -342
-1225 -505 -2152 -887 -2169 -894 -2658 -1095 -98 -40 -176 -74 -174 -76 2 -3
2138 -884 3262 -1346 187 -77 343 -143 348 -147 4 -4 3 -799 -3 -1767 -5 -967
-14 -2593 -20 -3613 -6 -1019 -9 -1855 -7 -1857 9 -9 431 -141 652 -204 1672
-477 3355 -762 4790 -811 1165 -39 2482 106 3940 435 293 66 397 91 610 145
495 127 916 249 1339 388 l300 98 -3 3601 -3 3601 69 27 c37 16 292 120 566
232 274 113 504 207 512 211 13 4 15 -148 15 -1210 l0 -1215 -52 -30 c-241
-136 -405 -377 -438 -644 -10 -85 -260 -2419 -260 -2431 0 -4 504 -7 1120 -7
l1120 0 0 27 c0 47 -250 2384 -261 2443 -42 219 -156 409 -323 534 -39 29 -90
63 -113 75 l-43 21 0 1374 c0 1090 3 1375 13 1379 92 37 1673 689 1674 691 2
1 -201 86 -450 189 -440 181 -1940 799 -3312 1365 -1765 727 -2888 1190 -3875
1597 -591 244 -1229 506 -1417 584 -188 78 -346 141 -350 141 -4 -1 -82 -31
-173 -69z m489 -867 c168 -69 857 -353 1531 -631 674 -278 1482 -611 1795
-740 314 -130 748 -309 965 -398 841 -347 2513 -1036 2669 -1101 l165 -68 -50
-22 c-27 -12 -1701 -701 -3719 -1533 l-3670 -1511 -1770 729 c-2387 982 -5503
2266 -5594 2303 -52 22 -69 33 -59 39 13 7 912 379 1728 714 151 62 867 357
1590 655 723 298 1396 575 1495 616 99 41 725 298 1390 573 666 275 1214 500
1219 500 6 1 147 -56 315 -125z m4741 -6972 l0 -2237 -202 -59 c-1625 -475
-3078 -737 -4418 -796 -1284 -56 -2974 161 -4750 611 -173 44 -413 107 -532
140 l-217 61 5 827 c3 454 9 1466 13 2248 3 782 9 1424 12 1428 3 3 1137 -460
2520 -1030 l2513 -1035 866 356 c2520 1037 2937 1209 3535 1455 358 147 651
268 653 269 1 0 2 -1007 2 -2238z m2351 -95 c23 -16 37 -35 46 -67 10 -36 146
-1264 170 -1543 l6 -68 -287 2 c-157 1 -288 4 -290 8 -2 3 34 355 80 781 46
426 84 784 84 796 0 29 40 86 70 101 38 19 83 15 121 -10z m-2351 -3470 l0
-544 -152 -46 c-952 -288 -2060 -536 -3000 -671 -786 -113 -1362 -153 -2078
-143 -672 9 -1216 58 -2048 183 -807 121 -2000 385 -2786 615 l-68 21 7 541
c4 298 9 543 10 545 2 2 34 -6 72 -17 278 -82 1040 -268 1454 -355 827 -174
1739 -310 2439 -365 473 -38 663 -45 1115 -45 559 0 952 24 1570 94 990 112
2283 381 3335 694 63 19 118 34 123 35 4 1 7 -243 7 -542z"/>
</g>
</svg>
