<?xml version="1.0" standalone="no"?>
<!DOCTYPE svg PUBLIC "-//W3C//DTD SVG 20010904//EN"
 "http://www.w3.org/TR/2001/REC-SVG-20010904/DTD/svg10.dtd">
<svg version="1.0" xmlns="http://www.w3.org/2000/svg"
 width="2000.000000pt" height="1600.000000pt" viewBox="0 0 2000.000000 1600.000000"
 preserveAspectRatio="xMidYMid meet">

<g transform="translate(0.000000,1600.000000) scale(0.100000,-0.100000)"
fill="#000000" stroke="none">
<path d="M8070 15393 c-88 -7 -327 -45 -432 -69 -468 -107 -906 -315 -1298
-618 -135 -104 -441 -411 -548 -547 -484 -625 -720 -1339 -699 -2114 11 -404
81 -752 224 -1110 253 -637 671 -1153 1243 -1534 406 -270 877 -447 1379 -517
156 -21 519 -29 692 -15 655 56 1254 295 1774 707 135 107 405 375 506 504
350 444 573 929 668 1455 41 229 46 294 45 610 0 268 -3 329 -22 452 -57 367
-147 653 -307 978 -181 369 -407 673 -716 961 -514 480 -1200 788 -1904 854
-100 9 -496 11 -605 3z m563 -878 c247 -29 470 -89 685 -184 768 -339 1290
-1020 1419 -1851 25 -162 25 -539 0 -700 -80 -510 -313 -975 -667 -1331 -203
-204 -393 -341 -648 -467 -347 -172 -666 -246 -1062 -246 -242 0 -359 14 -581
69 -330 81 -659 245 -924 460 -273 222 -491 495 -646 810 -357 730 -325 1584
88 2280 334 564 913 983 1548 1120 250 54 541 69 788 40z"/>
<path d="M7979 8399 c-1283 -77 -2580 -645 -3513 -1539 -510 -489 -883 -994
-1186 -1605 -312 -631 -484 -1228 -567 -1975 -14 -122 -17 -317 -20 -1238 -4
-993 -3 -1098 12 -1150 47 -163 173 -282 330 -311 45 -9 1885 -11 7110 -9
l7050 3 55 22 c79 33 149 89 197 160 79 119 73 -96 73 2429 1 2524 7 2307 -73
2426 -48 72 -117 128 -197 161 l-55 22 -766 3 -767 2 -11 28 c-6 15 -82 244
-170 509 -88 266 -172 507 -187 537 -38 79 -115 152 -204 195 l-75 36 -1420 0
-1420 0 -56 -27 c-31 -16 -59 -28 -63 -28 -4 0 -44 31 -89 68 -572 475 -1312
866 -2022 1067 -388 109 -744 174 -1148 210 -188 16 -589 18 -818 4z m851
-883 c468 -47 905 -154 1335 -328 517 -209 1041 -541 1445 -915 l65 -61 -70
-206 -70 -206 -751 0 c-825 0 -807 1 -906 -61 -57 -37 -130 -113 -156 -165
-55 -109 -52 24 -52 -2141 l0 -1993 -3056 0 -3056 0 5 818 c4 851 6 880 53
1201 100 688 381 1401 784 1989 465 681 1123 1249 1855 1603 573 277 1117 422
1797 479 140 12 601 3 778 -14z m5836 -1492 c38 -118 68 -217 65 -219 -2 -3
-512 -5 -1133 -5 -909 0 -1128 2 -1128 13 0 10 111 351 135 415 3 9 212 12
997 12 l993 -1 71 -215z m1984 -1361 c0 -378 -17 -477 -125 -728 -45 -105
-146 -249 -248 -354 -199 -203 -433 -324 -728 -376 -129 -23 -3769 -22 -3909
0 -468 76 -865 411 -1021 860 -57 166 -62 205 -66 548 l-4 317 3050 0 3051 0
0 -267z m-5755 -2128 c248 -121 488 -188 764 -215 142 -14 3743 -14 3882 0
232 23 449 78 666 170 113 48 307 155 385 212 18 14 39 28 46 32 9 6 12 -126
12 -643 l0 -651 -3050 0 -3050 0 -2 646 c-2 355 -1 647 0 649 2 2 52 -28 110
-67 59 -39 166 -99 237 -133z"/>
</g>
</svg>
